<svg id="visual" viewBox="0 0 960 540" width="960" height="540" xmlns="http://www.w3.org/2000/svg" xmlns:xlink="http://www.w3.org/1999/xlink" version="1.1"><rect x="0" y="0" width="960" height="540" fill="#002233"></rect><path d="M0 455L46 455L46 437L91 437L91 411L137 411L137 401L183 401L183 412L229 412L229 437L274 437L274 448L320 448L320 424L366 424L366 419L411 419L411 414L457 414L457 424L503 424L503 419L549 419L549 437L594 437L594 429L640 429L640 444L686 444L686 422L731 422L731 453L777 453L777 421L823 421L823 419L869 419L869 411L914 411L914 402L960 402L960 458L960 541L960 541L914 541L914 541L869 541L869 541L823 541L823 541L777 541L777 541L731 541L731 541L686 541L686 541L640 541L640 541L594 541L594 541L549 541L549 541L503 541L503 541L457 541L457 541L411 541L411 541L366 541L366 541L320 541L320 541L274 541L274 541L229 541L229 541L183 541L183 541L137 541L137 541L91 541L91 541L46 541L46 541L0 541Z" fill="#0066FF" stroke-linecap="square" stroke-linejoin="miter"></path></svg>