<svg id="visual" viewBox="0 0 960 540" width="960" height="540" xmlns="http://www.w3.org/2000/svg" xmlns:xlink="http://www.w3.org/1999/xlink" version="1.1"><rect x="0" y="0" width="960" height="540" fill="#002233"></rect><path d="M0 333L10.7 324.7C21.3 316.3 42.7 299.7 64 291.8C85.3 284 106.7 285 128 285.3C149.3 285.7 170.7 285.3 192 282C213.3 278.7 234.7 272.3 256 287.2C277.3 302 298.7 338 320 355.3C341.3 372.7 362.7 371.3 384 361.8C405.3 352.3 426.7 334.7 448 330.7C469.3 326.7 490.7 336.3 512 339.8C533.3 343.3 554.7 340.7 576 333.3C597.3 326 618.7 314 640 310.3C661.3 306.7 682.7 311.3 704 317.7C725.3 324 746.7 332 768 341C789.3 350 810.7 360 832 359.3C853.3 358.7 874.7 347.3 896 345.2C917.3 343 938.7 350 949.3 353.5L960 357L960 541L949.3 541C938.7 541 917.3 541 896 541C874.7 541 853.3 541 832 541C810.7 541 789.3 541 768 541C746.7 541 725.3 541 704 541C682.7 541 661.3 541 640 541C618.7 541 597.3 541 576 541C554.7 541 533.3 541 512 541C490.7 541 469.3 541 448 541C426.7 541 405.3 541 384 541C362.7 541 341.3 541 320 541C298.7 541 277.3 541 256 541C234.7 541 213.3 541 192 541C170.7 541 149.3 541 128 541C106.7 541 85.3 541 64 541C42.7 541 21.3 541 10.7 541L0 541Z" fill="#0066FF" stroke-linecap="round" stroke-linejoin="miter"></path></svg>