<svg id="visual" viewBox="0 0 1920 1080" width="1920" height="1080" xmlns="http://www.w3.org/2000/svg" xmlns:xlink="http://www.w3.org/1999/xlink" version="1.1"><rect x="0" y="0" width="1920" height="1080" fill="#001220"></rect><defs><linearGradient id="grad1_0" x1="43.8%" y1="0%" x2="100%" y2="100%"><stop offset="14.444444444444446%" stop-color="#fbae3c" stop-opacity="1"></stop><stop offset="85.55555555555554%" stop-color="#fbae3c" stop-opacity="1"></stop></linearGradient></defs><defs><linearGradient id="grad1_1" x1="43.8%" y1="0%" x2="100%" y2="100%"><stop offset="14.444444444444446%" stop-color="#fbae3c" stop-opacity="1"></stop><stop offset="85.55555555555554%" stop-color="#cc5867" stop-opacity="1"></stop></linearGradient></defs><defs><linearGradient id="grad1_2" x1="43.8%" y1="0%" x2="100%" y2="100%"><stop offset="14.444444444444446%" stop-color="#593762" stop-opacity="1"></stop><stop offset="85.55555555555554%" stop-color="#cc5867" stop-opacity="1"></stop></linearGradient></defs><defs><linearGradient id="grad1_3" x1="43.8%" y1="0%" x2="100%" y2="100%"><stop offset="14.444444444444446%" stop-color="#593762" stop-opacity="1"></stop><stop offset="85.55555555555554%" stop-color="#001220" stop-opacity="1"></stop></linearGradient></defs><defs><linearGradient id="grad2_0" x1="0%" y1="0%" x2="56.3%" y2="100%"><stop offset="14.444444444444446%" stop-color="#fbae3c" stop-opacity="1"></stop><stop offset="85.55555555555554%" stop-color="#fbae3c" stop-opacity="1"></stop></linearGradient></defs><defs><linearGradient id="grad2_1" x1="0%" y1="0%" x2="56.3%" y2="100%"><stop offset="14.444444444444446%" stop-color="#cc5867" stop-opacity="1"></stop><stop offset="85.55555555555554%" stop-color="#fbae3c" stop-opacity="1"></stop></linearGradient></defs><defs><linearGradient id="grad2_2" x1="0%" y1="0%" x2="56.3%" y2="100%"><stop offset="14.444444444444446%" stop-color="#cc5867" stop-opacity="1"></stop><stop offset="85.55555555555554%" stop-color="#593762" stop-opacity="1"></stop></linearGradient></defs><defs><linearGradient id="grad2_3" x1="0%" y1="0%" x2="56.3%" y2="100%"><stop offset="14.444444444444446%" stop-color="#001220" stop-opacity="1"></stop><stop offset="85.55555555555554%" stop-color="#593762" stop-opacity="1"></stop></linearGradient></defs><g transform="translate(1920, 0)"><path d="M0 810C-62.9 812.5 -125.8 815 -180.2 789.7C-234.7 764.3 -280.8 711.1 -319.3 663.1C-357.9 615.1 -388.9 572.2 -432.1 541.8C-475.3 511.4 -530.7 493.5 -574.6 458.3C-618.5 423 -650.9 370.5 -655 315.4C-659.1 260.4 -635 202.8 -656.1 149.8C-677.3 96.8 -743.6 48.4 -810 0L0 0Z" fill="#232745"></path><path d="M0 607.5C-47.2 609.4 -94.3 611.3 -135.2 592.3C-176 573.3 -210.6 533.4 -239.5 497.3C-268.4 461.3 -291.6 429.2 -324.1 406.4C-356.5 383.6 -398.1 370.1 -431 343.7C-463.9 317.3 -488.2 277.9 -491.3 236.6C-494.3 195.3 -476.2 152.1 -492.1 112.3C-507.9 72.6 -557.7 36.3 -607.5 0L0 0Z" fill="#96446e"></path><path d="M0 405C-31.4 406.3 -62.9 407.5 -90.1 394.8C-117.4 382.2 -140.4 355.6 -159.7 331.6C-178.9 307.5 -194.4 286.1 -216 270.9C-237.6 255.7 -265.4 246.7 -287.3 229.1C-309.3 211.5 -325.4 185.3 -327.5 157.7C-329.6 130.2 -317.5 101.4 -328.1 74.9C-338.6 48.4 -371.8 24.2 -405 0L0 0Z" fill="#f17c53"></path><path d="M0 202.5C-15.7 203.1 -31.4 203.8 -45.1 197.4C-58.7 191.1 -70.2 177.8 -79.8 165.8C-89.5 153.8 -97.2 143.1 -108 135.5C-118.8 127.9 -132.7 123.4 -143.7 114.6C-154.6 105.8 -162.7 92.6 -163.8 78.9C-164.8 65.1 -158.7 50.7 -164 37.4C-169.3 24.2 -185.9 12.1 -202.5 0L0 0Z" fill="#fbae3c"></path></g><g transform="translate(0, 1080)"><path d="M0 -810C57.2 -798.2 114.4 -786.4 178.2 -780.9C242.1 -775.5 312.6 -776.3 351.4 -729.8C390.3 -683.2 397.6 -589.2 430.2 -539.5C462.8 -489.7 520.6 -484.1 574.6 -458.3C628.7 -432.4 678.8 -386.4 687.4 -331.1C696 -275.7 663.1 -211.1 676.6 -154.4C690.1 -97.7 750.1 -48.9 810 0L0 0Z" fill="#232745"></path><path d="M0 -607.5C42.9 -598.6 85.8 -589.8 133.7 -585.7C181.6 -581.6 234.4 -582.3 263.6 -547.3C292.8 -512.4 298.2 -441.9 322.7 -404.6C347.1 -367.3 390.5 -363.1 431 -343.7C471.5 -324.3 509.1 -289.8 515.6 -248.3C522 -206.8 497.3 -158.4 507.4 -115.8C517.6 -73.3 562.5 -36.6 607.5 0L0 0Z" fill="#96446e"></path><path d="M0 -405C28.6 -399.1 57.2 -393.2 89.1 -390.5C121 -387.7 156.3 -388.2 175.7 -364.9C195.2 -341.6 198.8 -294.6 215.1 -269.7C231.4 -244.8 260.3 -242 287.3 -229.1C314.3 -216.2 339.4 -193.2 343.7 -165.5C348 -137.9 331.5 -105.6 338.3 -77.2C345.1 -48.9 375 -24.4 405 0L0 0Z" fill="#f17c53"></path><path d="M0 -202.5C14.3 -199.5 28.6 -196.6 44.6 -195.2C60.5 -193.9 78.1 -194.1 87.9 -182.4C97.6 -170.8 99.4 -147.3 107.6 -134.9C115.7 -122.4 130.2 -121 143.7 -114.6C157.2 -108.1 169.7 -96.6 171.9 -82.8C174 -68.9 165.8 -52.8 169.1 -38.6C172.5 -24.4 187.5 -12.2 202.5 0L0 0Z" fill="#fbae3c"></path></g></svg>