<svg id="visual" viewBox="0 0 1920 1080" width="1920" height="1080" xmlns="http://www.w3.org/2000/svg" xmlns:xlink="http://www.w3.org/1999/xlink" version="1.1"><rect x="0" y="0" width="1920" height="1080" fill="#002233"></rect><path d="M0 813L26.7 830C53.3 847 106.7 881 160 876.7C213.3 872.3 266.7 829.7 320 829.7C373.3 829.7 426.7 872.3 480 878.2C533.3 884 586.7 853 640 830.8C693.3 808.7 746.7 795.3 800 778.2C853.3 761 906.7 740 960 734C1013.3 728 1066.7 737 1120 764.3C1173.3 791.7 1226.7 837.3 1280 828.7C1333.3 820 1386.7 757 1440 727.8C1493.3 698.7 1546.7 703.3 1600 740C1653.3 776.7 1706.7 845.3 1760 842.5C1813.3 839.7 1866.7 765.3 1893.3 728.2L1920 691L1920 1081L1893.3 1081C1866.7 1081 1813.3 1081 1760 1081C1706.7 1081 1653.3 1081 1600 1081C1546.7 1081 1493.3 1081 1440 1081C1386.7 1081 1333.3 1081 1280 1081C1226.7 1081 1173.3 1081 1120 1081C1066.7 1081 1013.3 1081 960 1081C906.7 1081 853.3 1081 800 1081C746.7 1081 693.3 1081 640 1081C586.7 1081 533.3 1081 480 1081C426.7 1081 373.3 1081 320 1081C266.7 1081 213.3 1081 160 1081C106.7 1081 53.3 1081 26.7 1081L0 1081Z" fill="#0066FF" stroke-linecap="round" stroke-linejoin="miter"></path></svg>