<svg id="visual" viewBox="0 0 540 960" width="540" height="960" xmlns="http://www.w3.org/2000/svg" xmlns:xlink="http://www.w3.org/1999/xlink" version="1.1"><rect x="0" y="0" width="540" height="960" fill="#002233"></rect><path d="M0 775L11.3 765.3C22.7 755.7 45.3 736.3 67.8 704.7C90.3 673 112.7 629 135.2 643C157.7 657 180.3 729 202.8 747.7C225.3 766.3 247.7 731.7 270.2 738.3C292.7 745 315.3 793 337.8 790.3C360.3 787.7 382.7 734.3 405.2 711.7C427.7 689 450.3 697 472.8 697.7C495.3 698.3 517.7 691.7 528.8 688.3L540 685L540 961L528.8 961C517.7 961 495.3 961 472.8 961C450.3 961 427.7 961 405.2 961C382.7 961 360.3 961 337.8 961C315.3 961 292.7 961 270.2 961C247.7 961 225.3 961 202.8 961C180.3 961 157.7 961 135.2 961C112.7 961 90.3 961 67.8 961C45.3 961 22.7 961 11.3 961L0 961Z" fill="#0066FF" stroke-linecap="round" stroke-linejoin="miter"></path></svg>